<svg xmlns="http://www.w3.org/2000/svg" viewBox="0 0 337.47 231.38"><defs><style>.cls-1{fill:#d25459;}.cls-2{fill:none;}.cls-3{fill:#231f20;}.cls-4{fill:#2e2a25;}</style></defs><title>yacs-symbol-coated</title><g id="Layer_2" data-name="Layer 2"><g id="Layer_1-2" data-name="Layer 1"><path class="cls-1" d="M273.61,120C259.13,128.72,350.32,87,327,34.36h0c.67-10.65,29.76,39-12,80.35-9.63,9.55-23,18.66-41.43,26.49"/><path class="cls-1" d="M63.9,141.2c-18.4-7.83-31.8-16.94-41.43-26.49-41.74-41.38-12.65-91-12-80.35h0C-12.85,87,78.34,128.72,63.86,120"/><path class="cls-2" d="M95.67,124.07"/><line class="cls-3" x1="73.49" y1="108.93" x2="73.49" y2="171.83"/><path class="cls-4" d="M72.29,175.17c0,74.94,192.89,74.94,192.89,0V112.28L167.52,166,72.29,112.28"/><path class="cls-2" d="M136.92,139.07"/><polyline class="cls-3" points="170.18 3 156.28 10.5 32.44 77.3"/><path class="cls-4" d="M170.18,0,32.44,74.3,170,149.07,307.44,74.3Zm-1.09,85c-8.5,0-15.39-4.67-15.39-10.42s6.89-10.42,15.39-10.42,15.39,4.67,15.39,10.42S177.59,85,169.09,85Z"/></g></g></svg>